<svg xmlns="http://www.w3.org/2000/svg" xmlns:xlink="http://www.w3.org/1999/xlink" width="400" height="400" viewBox="0 0 400 400" fill="none">
<metadata><![CDATA[
  Designed by ln1 (Evan Chronis) © ln1 (Evan Chronis).
  Licensed under Creative Commons Attribution-NonCommercial-ShareAlike (CC BY-NC-SA).
  Free to use, modify, and distribute for non-commercial purposes only,
  with attribution and share-alike conditions.
  GitHub: https://github.com/ln-one
  ]]></metadata>
<path d="M0 400L400 400L400 0L0 0L0 400Z"   fill="#5B8EBA" >
</path>
<path d="M65 119.5L136.5 159.5L150.5 152L95.5 119.5L214.5 50.5L199.5 41.5L65 119.5ZM108.5 119.5L123 128.5L203 82.5L203 358L338 281L338 263.5L218 332L217.5 56L108.5 119.5ZM140 165L153.5 158L153.5 174.5L140 181.5L140 165ZM62.5 125L62.5 142.5L133.5 181.5L133.5 165L62.5 125ZM182 102L196.5 93.5L196.5 357.5L181.5 348L182 102Z"   fill="#EFEFEF" fill-opacity="0.5">
</path>
<path d="M224 321L335.5 257.5L265.5 216.5L249.5 226.5L304 257.5L224 303L224 321ZM276 266L291 257.5L247 232L247 247.5L276 266ZM80.5 180L94.5 187L80.5 194.5L66.5 187L80.5 180ZM62.5 192.5L77 200L77 271.5L133.5 303.5L133.5 321.5L62.5 281L62.5 192.5ZM139.5 303.5L153.5 295.5L153.5 313L140 321L139.5 303.5ZM84 200L98 192.5L98.5 256L83.5 264.5L84 200ZM101.5 261.5L87 269.5L137 298L150 290.5L101.5 261.5ZM247 94L247 109.5L301 143L301 211L317.5 220.5L317.5 133.5L247 94ZM250 88L265 79L335 119.5L320.5 128L250 88ZM338 211L324 220.5L324 133.5L338 125L338 211Z"   fill="#EFEFEF" fill-opacity="0.5">
</path>
<path d="M201.27 35L223.98 48.46L223.98 295.8L269.82 269.67L241.8 251.99L240.26 251.01L240.26 224.59L241.8 223.61L263.26 210.01L264.98 208.92L266.75 209.96L342.97 254.8L344.6 255.76L344.6 284.93L342.92 285.88L201.21 366.01L199.46 367L197.77 365.93L176.31 352.33L174.77 351.35L174.77 349.53L175.35 105.71L129.46 131.71L158.41 149.72L159.97 150.69L159.97 178.39L158.22 179.33L138.24 189.99L136.63 190.84L135.04 189.97L57.71 147.33L56 146.38L56 117.55L57.65 116.59L197.88 34.99L199.58 34L201.27 35ZM62.66 142.49L133.33 181.46L133.33 165.11L62.66 125.13L62.66 142.49ZM65.99 119.4L136.71 159.4L149.92 152.35L99.79 122.27L94.99 119.39L99.83 116.59L214.1 50.31L199.54 41.69L65.99 119.4ZM217.32 56.1L162.67 87.79L108.03 119.49L122.38 128.1L177.04 97.14L197.91 85.33L202.89 82.51L202.89 357.45L337.94 281.09L337.94 263.37L222.31 329.61L217.32 332.48L217.32 56.1ZM223.98 321.02L334.67 257.61L265.12 216.69L249.99 226.27L299.29 254.79L304.26 257.67L299.27 260.52L277.92 272.68L223.98 303.43L223.98 321.02ZM290.96 257.63L246.92 232.16L246.92 247.38L276.35 265.95L290.96 257.63ZM196.23 357.1L196.23 93.89L182.02 101.94L181.43 347.73L196.23 357.1ZM153.31 158.06L139.99 165.16L139.99 181.54L153.31 174.44L153.31 158.06ZM266.73 72.48L342.95 116.58L344.6 117.54L344.6 214.57L343.13 215.55L322.78 229.15L321.04 230.31L319.23 229.26L295.92 215.66L294.28 214.7L294.28 146.28L241.84 114.17L240.26 113.2L240.26 86.33L241.87 85.37L263.33 72.5L265.02 71.49L266.73 72.48ZM246.92 109.51L299.36 141.62L300.94 142.59L300.94 210.91L317.59 220.62L317.59 133.5L246.92 93.87L246.92 109.51ZM250.19 88.1L320.87 127.74L334.73 119.48L265.08 79.18L250.19 88.1ZM337.94 125.29L324.25 133.45L324.25 220.19L337.94 211.04L337.94 125.29ZM81.93 173.47L103.02 184.13L104.84 185.05L104.84 255.77L158.35 287.52L159.97 288.48L159.97 316.48L158.38 317.44L138.4 329.57L136.72 330.59L135.01 329.62L57.68 285.88L56 284.93L56 185.05L57.82 184.13L78.91 173.47L80.42 172.7L81.93 173.47ZM62.66 281.09L133.33 321.06L133.33 303.32L78.78 272.66L77.09 271.71L77.09 200.1L62.66 192.55L62.66 281.09ZM66.58 187.12L80.42 194.36L94.26 187.12L80.42 180.13L66.58 187.12ZM98.18 192.55L83.75 200.1L83.75 264.04L98.18 255.74L98.18 192.55ZM101.48 261.48L87.12 269.74L136.67 297.59L149.97 290.26L101.48 261.48ZM153.31 295.98L139.99 303.33L139.99 320.85L153.31 312.76L153.31 295.98Z" fill-rule="evenodd"  fill="#333333" fill-opacity="0.85">
</path>
</svg>
