<svg xmlns="http://www.w3.org/2000/svg" width="400" height="400" fill="none"><metadata><![CDATA[
  Designed by ln1 (Evan Chronis) © ln1 (Evan Chronis).
  Licensed under Creative Commons Attribution-NonCommercial-ShareAlike (CC BY-NC-SA).
  Free to use, modify, and distribute for non-commercial purposes only,
  with attribution and share-alike conditions.
  GitHub: https://github.com/ln-one
  ]]></metadata><style>.light-fill{fill:#efefef;fill-opacity:.5}</style><path fill="#D43030" fill-opacity="0" d="M0 400h400V0H0v400Z"/><path fill-rule="evenodd" d="m201.27 35 22.71 13.46V295.8l45.84-26.13-28.02-17.68-1.54-.98v-26.42l1.54-.98 21.46-13.6 1.72-1.09 1.77 1.04 76.22 44.84 1.63.96v29.17l-1.68.95-141.71 80.13-1.75.99-1.69-1.07-21.46-13.6-1.54-.98v-1.82l.58-243.82-45.89 26 28.95 18.01 1.56.97v27.7l-1.75.94-19.98 10.66-1.61.85-1.59-.87-77.33-42.64-1.71-.95v-28.83l1.65-.96 140.23-81.6 1.7-.99 1.69 1ZM62.66 142.49l70.67 38.97v-16.35l-70.67-39.98v17.36Zm3.33-23.09 70.72 40 13.21-7.05-50.13-30.08-4.8-2.88 4.84-2.8L214.1 50.31l-14.56-8.62L65.99 119.4Zm151.33-63.3-54.65 31.69-54.64 31.7 14.35 8.61 54.66-30.96 20.87-11.81 4.98-2.82v274.94l135.05-76.36v-17.72l-115.63 66.24-4.99 2.87V56.1Zm6.66 264.92 110.69-63.41-69.55-40.92-15.13 9.58 49.3 28.52 4.97 2.88-4.99 2.85-21.35 12.16-53.94 30.75v17.59Zm66.98-63.39-44.04-25.47v15.22l29.43 18.57 14.61-8.32Zm-94.73 99.47V93.89l-14.21 8.05-.59 245.79 14.8 9.37Zm-42.92-199.04-13.32 7.1v16.38l13.32-7.1v-16.38Zm113.42-85.58 76.22 44.1 1.65.96v97.03l-1.47.98-20.35 13.6-1.74 1.16-1.81-1.05-23.31-13.6-1.64-.96v-68.42l-52.44-32.11-1.58-.97V86.33l1.61-.96 21.46-12.87 1.69-1.01 1.71.99Zm-19.81 37.03 52.44 32.11 1.58.97v68.32l16.65 9.71V133.5l-70.67-39.63v15.64Zm3.27-21.41 70.68 39.64 13.86-8.26-69.65-40.3-14.89 8.92Zm87.75 37.19-13.69 8.16v86.74l13.69-9.15v-85.75ZM81.93 173.47l21.09 10.66 1.82.92v70.72l53.51 31.75 1.62.96v28l-1.59.96-19.98 12.13-1.68 1.02-1.71-.97-77.33-43.74-1.68-.95v-99.88l1.82-.92 21.09-10.66 1.51-.77 1.51.77ZM62.66 281.09l70.67 39.97v-17.74l-54.55-30.66-1.69-.95V200.1l-14.43-7.55v88.54Zm3.92-93.97 13.84 7.24 13.84-7.24-13.84-6.99-13.84 6.99Zm31.6 5.43-14.43 7.55v63.94l14.43-8.3v-63.19Zm3.3 68.93-14.36 8.26 49.55 27.85 13.3-7.33-48.49-28.78Zm51.83 34.5-13.32 7.35v17.52l13.32-8.09v-16.78Z" style="fill:#333;fill-opacity:.85"/><path d="m65 119.5 71.5 40 14-7.5-55-32.5 119-69-15-9-134.5 78Zm43.5 0 14.5 9 80-46V358l135-77v-17.5L218 332l-.5-276-109 63.5ZM140 165l13.5-7v16.5l-13.5 7V165Zm-77.5-40v17.5l71 39V165l-71-40ZM182 102l14.5-8.5v264l-15-9.5.5-246Z" class="light-fill"/><path d="m224 321 111.5-63.5-70-41-16 10 54.5 31-80 45.5v18Zm52-55 15-8.5-44-25.5v15.5l29 18.5ZM80.5 180l14 7-14 7.5-14-7.5 14-7Zm-18 12.5L77 200v71.5l56.5 32v18l-71-40.5v-88.5Zm77 111 14-8V313l-13.5 8-.5-17.5ZM84 200l14-7.5.5 63.5-15 8.5.5-64.5Zm17.5 61.5-14.5 8 50 28.5 13-7.5-48.5-29ZM247 94v15.5l54 33.5v68l16.5 9.5v-87L247 94Zm3-6 15-9 70 40.5-14.5 8.5L250 88Zm88 123-14 9.5v-87l14-8.5v86Z" class="light-fill"/></svg>