<svg xmlns="http://www.w3.org/2000/svg" xmlns:xlink="http://www.w3.org/1999/xlink" width="400" height="400" viewBox="0 0 400 400" fill="none">
<path     fill="#FFFFFF"  d="M0 400L400 400L400 0L0 0L0 400Z">
</path>
<path   fill-rule="evenodd"  fill="#07C160"  d="M223.255 48.0301C223.704 48.2966 223.98 48.7805 223.98 49.3032L223.98 293.253C223.98 294.388 225.206 295.101 226.193 294.539L267.677 270.891C268.648 270.338 268.679 268.95 267.734 268.354L241.8 251.99L240.945 251.446C240.519 251.175 240.26 250.704 240.26 250.198L240.26 225.402C240.26 224.896 240.519 224.425 240.945 224.154L241.8 223.61L263.26 210.01L264.217 209.404C264.685 209.107 265.281 209.097 265.759 209.378L266.75 209.96L342.97 254.8L343.871 255.331C344.323 255.597 344.6 256.082 344.6 256.606L344.6 284.067C344.6 284.6 344.313 285.092 343.848 285.355L342.92 285.88L201.21 366.01L200.232 366.564C199.757 366.832 199.172 366.818 198.711 366.526L197.77 365.93L176.31 352.33L175.455 351.786C175.029 351.515 174.77 351.044 174.77 350.538L174.77 349.53L175.344 108.257C175.347 107.121 174.122 106.406 173.134 106.965L131.628 130.482C130.651 131.035 130.622 132.433 131.576 133.026L158.41 149.72L159.271 150.256C159.706 150.526 159.97 151.001 159.97 151.513L159.97 177.505C159.97 178.05 159.67 178.551 159.19 178.809L158.22 179.33L138.24 189.99L137.333 190.469C136.894 190.701 136.368 190.697 135.932 190.458L135.04 189.97L57.71 147.33L56.7612 146.803C56.2914 146.542 56 146.047 56 145.509L56 118.401C56 117.874 56.2802 117.387 56.7357 117.122L57.65 116.59L197.88 34.99L198.829 34.4372C199.293 34.1673 199.866 34.1693 200.328 34.4424L201.27 35L223.255 48.0301ZM63.4253 142.912L131.135 180.25C132.122 180.794 133.33 180.08 133.33 178.954L133.33 165.973C133.33 165.44 133.043 164.948 132.579 164.685L64.8687 126.38C63.8821 125.821 62.66 126.534 62.66 127.668L62.66 141.616C62.66 142.155 62.9532 142.652 63.4253 142.912ZM68.2354 120.67L136.002 159C136.443 159.249 136.981 159.256 137.428 159.017L147.615 153.58C148.629 153.039 148.666 151.597 147.679 151.006L99.79 122.27L97.1439 120.682C96.1769 120.102 96.1881 118.697 97.1642 118.132L99.83 116.59L211.915 51.5772C212.894 51.0098 212.9 49.5995 211.927 49.0234L200.287 42.1325C199.826 41.8593 199.253 41.8571 198.789 42.1269L68.2197 118.103C67.2318 118.677 67.2406 120.107 68.2354 120.67ZM215.097 57.3891L110.2 118.231C109.225 118.797 109.215 120.201 110.181 120.781L121.64 127.656C122.097 127.93 122.667 127.938 123.131 127.675L177.04 97.14L197.91 85.33L200.681 83.761C201.667 83.2023 202.89 83.9151 202.89 85.0489L202.89 354.913C202.89 356.046 204.112 356.759 205.098 356.201L337.188 281.515C337.653 281.252 337.94 280.76 337.94 280.227L337.94 265.923C337.94 264.786 336.711 264.074 335.724 264.639L222.31 329.61L219.538 331.204C218.551 331.772 217.32 331.06 217.32 329.921L217.32 58.6694C217.32 57.5287 216.084 56.8168 215.097 57.3891ZM226.196 319.751L332.458 258.877C333.444 258.312 333.452 256.893 332.473 256.317L265.899 217.148C265.421 216.867 264.825 216.877 264.357 217.173L252.055 224.962C251.116 225.557 251.143 226.937 252.106 227.494L299.29 254.79L302.034 256.38C303.022 256.952 303.017 258.38 302.026 258.946L299.27 260.52L277.92 272.68L224.727 303.004C224.265 303.267 223.98 303.758 223.98 304.29L223.98 318.467C223.98 319.604 225.209 320.316 226.196 319.751ZM288.728 256.339L249.141 233.444C248.154 232.874 246.92 233.586 246.92 234.726L246.92 246.564C246.92 247.072 247.181 247.544 247.61 247.816L275.599 265.476C276.061 265.768 276.647 265.781 277.121 265.511L288.719 258.906C289.712 258.341 289.717 256.911 288.728 256.339ZM196.23 354.411L196.23 96.4294C196.23 95.2955 195.007 94.5828 194.02 95.1417L182.768 101.516C182.306 101.778 182.019 102.268 182.018 102.8L181.432 346.913C181.431 347.422 181.691 347.895 182.12 348.167L193.958 355.662C194.944 356.286 196.23 355.578 196.23 354.411ZM151.134 159.22L140.774 164.742C140.291 164.999 139.99 165.502 139.99 166.048L139.99 179.074C139.99 180.191 141.18 180.906 142.166 180.38L152.526 174.858C153.009 174.601 153.31 174.098 153.31 173.552L153.31 160.526C153.31 159.409 152.12 158.694 151.134 159.22ZM266.73 72.48L342.95 116.58L343.864 117.112C344.32 117.377 344.6 117.864 344.6 118.391L344.6 213.778C344.6 214.273 344.353 214.735 343.941 215.009L343.13 215.55L322.78 229.15L321.807 229.799C321.337 230.112 320.731 230.131 320.243 229.848L319.23 229.26L295.92 215.66L295.012 215.129C294.559 214.863 294.28 214.377 294.28 213.851L294.28 147.109C294.28 146.594 294.012 146.116 293.573 145.847L241.84 114.17L240.966 113.633C240.527 113.364 240.26 112.886 240.26 112.372L240.26 87.1706C240.26 86.6493 240.534 86.1665 240.982 85.8995L241.87 85.37L263.33 72.5L264.273 71.9366C264.734 71.6609 265.308 71.657 265.773 71.9262L266.73 72.48ZM247.627 109.943L299.36 141.62L300.234 142.157C300.673 142.426 300.94 142.904 300.94 143.418L300.94 210.06C300.94 210.586 301.22 211.073 301.674 211.338L315.364 219.322C316.351 219.897 317.59 219.186 317.59 218.044L317.59 134.367C317.59 133.831 317.301 133.338 316.834 133.076L249.124 95.1059C248.137 94.5527 246.92 95.2657 246.92 96.3968L246.92 108.681C246.92 109.196 247.188 109.674 247.627 109.943ZM252.416 89.3486L320.124 127.321C320.585 127.58 321.15 127.573 321.605 127.302L332.565 120.77C333.535 120.192 333.526 118.784 332.549 118.218L265.834 79.6164C265.369 79.3471 264.794 79.3514 264.332 79.6278L252.38 86.7882C251.404 87.3724 251.425 88.7925 252.416 89.3486ZM335.702 126.624L324.972 133.02C324.524 133.286 324.25 133.769 324.25 134.291L324.25 217.421C324.25 218.604 325.569 219.308 326.552 218.651L337.282 211.48C337.693 211.205 337.94 210.743 337.94 210.249L337.94 127.895C337.94 126.747 336.689 126.036 335.702 126.624ZM81.93 173.47L103.02 184.13L104.028 184.639C104.526 184.891 104.84 185.402 104.84 185.96L104.84 254.927C104.84 255.45 105.115 255.933 105.565 256.2L158.35 287.52L159.245 288.05C159.694 288.317 159.97 288.801 159.97 289.323L159.97 315.645C159.97 316.163 159.699 316.644 159.255 316.912L158.38 317.44L138.4 329.57L137.463 330.139C137.004 330.417 136.431 330.426 135.964 330.161L135.01 329.62L57.68 285.88L56.7515 285.355C56.2871 285.092 56 284.6 56 284.067L56 185.96C56 185.402 56.3141 184.891 56.8123 184.639L57.82 184.13L78.91 173.47L79.7477 173.043C80.17 172.827 80.67 172.827 81.0923 173.043L81.93 173.47ZM63.4114 281.515L131.121 319.811C132.108 320.369 133.33 319.656 133.33 318.523L133.33 304.186C133.33 303.651 133.041 303.158 132.575 302.896L78.78 272.66L77.8448 272.134C77.3786 271.872 77.09 271.379 77.09 270.844L77.09 200.996C77.09 200.445 76.7841 199.94 76.2961 199.685L64.8261 193.683C63.8407 193.168 62.66 193.883 62.66 194.995L62.66 280.227C62.66 280.76 62.9471 281.252 63.4114 281.515ZM69.1311 188.455L79.734 194.001C80.1637 194.226 80.6763 194.226 81.106 194.001L91.7089 188.455C92.7761 187.896 92.7652 186.365 91.6901 185.822L81.0872 180.467C80.6676 180.255 80.1724 180.255 79.7528 180.467L69.1499 185.822C68.0748 186.365 68.0639 187.896 69.1311 188.455ZM96.0139 193.683L84.5439 199.685C84.0559 199.94 83.75 200.445 83.75 200.996L83.75 261.481C83.75 262.62 84.9813 263.332 85.9679 262.764L97.4379 256.167C97.897 255.903 98.18 255.414 98.18 254.884L98.18 194.995C98.18 193.883 96.9993 193.168 96.0139 193.683ZM100.73 261.911L89.3762 268.442C88.3811 269.015 88.3882 270.453 89.389 271.015L135.952 297.186C136.398 297.437 136.943 297.44 137.391 297.192L147.704 291.509C148.707 290.956 148.73 289.524 147.745 288.94L102.224 261.921C101.764 261.649 101.193 261.645 100.73 261.911ZM151.115 297.191L140.755 302.908C140.283 303.168 139.99 303.665 139.99 304.204L139.99 318.22C139.99 319.373 141.252 320.084 142.238 319.484L152.598 313.192C153.04 312.924 153.31 312.444 153.31 311.927L153.31 298.487C153.31 297.36 152.101 296.647 151.115 297.191Z">
</path>
</svg>
